HIERARCHY
ROOT Hips
{
	OFFSET 0.000000 88.474243 0.000000
	CHANNELS 6 Xposition Yposition Zposition Zrotation Yrotation Xrotation 
	JOINT Hips_Spine
	{
		OFFSET 0.000000 0.000000 0.000000
		CHANNELS 3 Zrotation Yrotation Xrotation
		JOINT Spine
		{
			OFFSET 0.005100 8.711998 -0.691000
			CHANNELS 3 Zrotation Yrotation Xrotation
			JOINT Spine1
			{
				OFFSET -0.009200 8.660301 -1.275000
				CHANNELS 3 Zrotation Yrotation Xrotation
				JOINT Spine2
				{
					OFFSET 0.006300 9.852501 -1.857000
					CHANNELS 3 Zrotation Yrotation Xrotation
					JOINT Spine2_Neck
					{
						OFFSET 0.000000 0.000000 0.000000
						CHANNELS 3 Zrotation Yrotation Xrotation
						JOINT Neck
						{
							OFFSET 0.016300 11.420799 -0.263300
							CHANNELS 3 Zrotation Yrotation Xrotation
							End Site #name: Head
							{
								OFFSET -0.019200 9.262405 2.362500
							}
						}
					}
					JOINT Spine2_LeftShoulder
					{
						OFFSET 0.000000 0.000000 0.000000
						CHANNELS 3 Zrotation Yrotation Xrotation
						JOINT LeftShoulder
						{
							OFFSET 5.616900 6.732201 -0.345700
							CHANNELS 3 Zrotation Yrotation Xrotation
							JOINT LeftArm
							{
								OFFSET 10.664888 -0.183372 -2.440700
								CHANNELS 3 Zrotation Yrotation Xrotation
								JOINT LeftForeArm
								{
									OFFSET 27.459126 0.000000 0.000000
									CHANNELS 3 Zrotation Yrotation Xrotation
									End Site #name: LeftHand
									{
										OFFSET 21.306858 0.000000 0.000000
									}
								}
							}
						}
					}
					JOINT Spine2_RightShoulder
					{
						OFFSET 0.000000 0.000000 0.000000
						CHANNELS 3 Zrotation Yrotation Xrotation
						JOINT RightShoulder
						{
							OFFSET -5.580300 6.737503 -0.344400
							CHANNELS 3 Zrotation Yrotation Xrotation
							JOINT RightArm
							{
								OFFSET -10.679335 -0.188484 -2.383900
								CHANNELS 3 Zrotation Yrotation Xrotation
								JOINT RightForeArm
								{
									OFFSET -27.503529 0.000000 0.000000
									CHANNELS 3 Zrotation Yrotation Xrotation
									End Site #name: RightHand
									{
										OFFSET -21.306808 0.000000 0.000000
									}
								}
							}
						}
					}
				}
			}
		}
	}
	JOINT Hips_LeftUpLeg
	{
		OFFSET 0.000000 0.000000 0.000000
		CHANNELS 3 Zrotation Yrotation Xrotation
		JOINT LeftUpLeg
		{
			OFFSET 6.857700 -6.739601 0.312100
			CHANNELS 3 Zrotation Yrotation Xrotation
			JOINT LeftLeg
			{
				OFFSET -0.367590 -34.731552 -4.572400
				CHANNELS 3 Zrotation Yrotation Xrotation
				End Site #name: LeftFoot
				{
					OFFSET 0.367590 -34.656704 -6.067400
				}
			}
		}
	}
	JOINT Hips_RightUpLeg
	{
		OFFSET 0.000000 0.000000 0.000000
		CHANNELS 3 Zrotation Yrotation Xrotation
		JOINT RightUpLeg
		{
			OFFSET -6.876100 -6.733299 0.301000
			CHANNELS 3 Zrotation Yrotation Xrotation
			JOINT RightLeg
			{
				OFFSET 0.347353 -34.795158 -4.515900
				CHANNELS 3 Zrotation Yrotation Xrotation
				End Site #name: RightFoot
				{
					OFFSET -0.347353 -34.589367 -6.070300
				}
			}
		}
	}
}
MOTION
Frames: 14
Frame Time: 0.041667
-0.099898 0.050741 0.026018 -3.491587 1.419590 -3.937334 -0.000000 0.000000 0.000000 -0.693431 0.780396 5.514970 -1.403141 1.373116 9.915958 0.000000 0.000000 0.000000 -1.736357 1.068587 9.282953 -0.811905 -3.769052 3.585294 -1.790426 1.072067 9.824107 -0.842961 -1.696501 0.233497 -68.895826 -23.825372 18.281996 169.418762 -87.119993 -169.792180 -1.521323 1.741708 10.767678 -4.886381 -0.297138 1.163030 74.051077 -2.256091 5.893663 168.786568 85.926783 170.830612 0.000000 -0.000000 0.000000 7.127018 1.340222 -18.909625 -1.483320 0.485216 33.152650 0.000000 0.000000 -0.000000 -4.483666 -2.708538 -15.676096 -0.360615 -2.043619 27.885623 
-0.047472 0.078742 0.181643 -4.416950 -1.716422 -3.378515 -0.000000 0.000000 0.000000 -0.712443 0.247866 5.236200 -1.937449 1.427021 10.351191 0.000000 0.000000 0.000000 -1.767658 1.336081 10.093376 -1.524765 -4.019001 5.084782 -1.933564 1.411476 10.435679 0.555215 0.736158 -0.223514 -68.720549 -21.870773 29.220891 -179.052105 -82.767274 178.951751 -1.794671 1.151309 9.992976 -5.435970 -2.334649 0.882368 80.285812 -7.436944 5.693368 -168.087983 88.538307 -167.892818 0.000000 -0.000000 0.000000 7.581787 0.531954 -22.351648 -0.678631 1.066515 32.044350 0.000000 0.000000 -0.000000 -3.143288 -3.845866 -16.642040 0.911389 -0.780835 27.715057 
0.112275 0.092839 0.196719 -4.293674 -4.779104 -2.889320 -0.000000 0.000000 0.000000 -0.725208 0.284653 4.966510 -2.142540 1.430663 10.442500 0.000000 0.000000 0.000000 -2.095433 1.532503 10.759652 -1.565731 -3.624194 4.674583 -1.825885 1.537591 10.425701 0.961435 0.236604 -0.183000 -70.206513 -17.258506 31.359116 -177.842958 -80.925683 177.704957 -1.974286 1.341600 9.944014 -4.351096 -1.578675 0.960048 78.690957 -9.173012 8.037116 -144.440794 89.109668 -144.423456 0.000000 -0.000000 0.000000 8.035928 1.238806 -22.796707 -0.732980 0.619004 33.639598 0.000000 0.000000 0.000000 -2.579514 -3.765329 -17.368015 0.580088 -1.031083 26.959196 
0.229054 0.082982 0.201842 -4.054981 -6.163421 -2.635387 -0.000000 -0.000000 0.000000 -0.610629 0.403882 4.593358 -2.002877 1.557504 10.257685 0.000000 0.000000 0.000000 -1.958863 1.621713 10.238480 -1.708276 -3.856545 5.061697 -1.887240 1.617277 10.363921 1.620927 -0.013268 0.022489 -71.178242 -16.517383 31.766473 -177.928209 -80.716503 177.773766 -2.035564 1.507561 9.851841 -4.272758 -0.600869 1.341695 76.665789 -8.494510 9.216771 -159.667812 87.491538 -159.891757 0.000000 -0.000000 0.000000 7.759118 1.427647 -23.200316 -0.958148 0.647240 33.985346 0.000000 0.000000 0.000000 -2.069267 -3.467736 -18.089058 0.474736 -0.665420 27.083596 
0.289094 0.091928 0.264163 -4.135677 -6.131251 -2.530708 -0.000000 -0.000000 0.000000 -0.537255 0.502689 4.525159 -1.859963 1.549328 9.952851 0.000000 0.000000 0.000000 -1.908349 1.581563 9.856486 -1.603418 -3.940717 5.256353 -1.922768 1.612815 10.119457 1.801823 -0.110267 0.209574 -71.545163 -17.245929 30.923482 -177.087516 -82.293017 177.102250 -2.021630 1.530567 9.842705 -4.579982 -1.096872 1.502786 75.994156 -9.011648 8.120843 -152.220517 87.668126 -152.651960 0.000000 -0.000000 0.000000 7.311544 1.472656 -22.911807 -1.110923 0.709268 33.390614 0.000000 0.000000 0.000000 -1.910011 -3.308452 -18.380548 0.550306 -0.510940 26.818972 
0.356628 0.100490 0.333306 -4.292678 -5.396108 -2.591110 -0.000000 -0.000000 0.000000 -0.536730 0.539141 4.443061 -1.804207 1.497157 9.690003 0.000000 0.000000 0.000000 -1.863112 1.479686 9.677475 -1.373059 -3.772964 5.282758 -1.917553 1.547220 9.861035 1.820670 0.125039 0.280993 -71.901921 -17.854228 29.843931 -174.880533 -83.317177 175.078454 -1.976186 1.496888 9.808275 -4.870276 -1.582094 1.522249 76.499193 -9.188811 6.854583 -150.575746 87.780865 -150.987978 0.000000 -0.000000 0.000000 7.026094 1.492356 -22.638545 -1.189068 0.770606 33.122746 -0.000000 -0.000000 0.000000 -2.120742 -3.297257 -18.143982 0.405765 -0.655098 26.350141 
0.439898 0.121793 0.409263 -4.455907 -4.868083 -2.567564 -0.000000 -0.000000 0.000000 -0.562303 0.558180 4.333591 -1.784455 1.492578 9.671706 0.000000 0.000000 0.000000 -1.866946 1.398361 9.675171 -1.109874 -3.608225 5.287120 -1.899262 1.482849 9.699867 1.806784 0.425133 0.271131 -71.992478 -18.420405 28.720093 -174.727536 -83.290963 174.812723 -1.906019 1.455946 9.739020 -4.764003 -1.772421 1.399107 76.932880 -9.502114 6.316915 -155.654783 87.611188 -155.937150 0.000000 -0.000000 0.000000 6.787444 1.394451 -22.316391 -1.148094 0.769252 32.988576 -0.000000 -0.000000 0.000000 -2.607318 -3.371353 -17.730386 0.344887 -0.829605 25.942282 
0.533288 0.162277 0.501538 -4.534931 -4.576954 -2.446042 -0.000000 -0.000000 0.000000 -0.580182 0.531553 4.283943 -1.769620 1.489582 9.742915 0.000000 0.000000 0.000000 -1.885870 1.366538 9.780124 -0.839927 -3.498044 5.250530 -1.865229 1.451117 9.668644 1.790883 0.546216 0.239897 -72.052038 -18.865325 28.245121 -175.173225 -83.097136 175.144509 -1.821906 1.431454 9.686739 -4.587677 -1.677459 1.266235 76.960636 -9.672308 6.064320 -161.197236 87.306425 -161.340468 0.000000 -0.000000 0.000000 6.602120 1.412331 -22.169600 -1.041781 0.735261 33.134205 -0.000000 -0.000000 0.000000 -3.064578 -3.433662 -17.391659 0.377500 -0.926658 25.808827 
0.638533 0.203024 0.581379 -4.497536 -4.456497 -2.287835 -0.000000 -0.000000 0.000000 -0.582158 0.505384 4.348897 -1.741260 1.502748 9.859066 0.000000 0.000000 0.000000 -1.885120 1.365065 9.857726 -0.508839 -3.205228 5.126116 -1.825235 1.443929 9.717536 1.881918 0.568020 0.232625 -72.329434 -18.589123 28.509651 -175.777088 -83.070347 175.666176 -1.730244 1.422598 9.677262 -4.408410 -1.600193 1.172049 76.559896 -9.514913 6.267606 -164.574392 87.187146 -164.610561 0.000000 -0.000000 0.000000 6.501399 1.472195 -22.079071 -0.954574 0.692741 33.364980 -0.000000 -0.000000 0.000000 -3.317824 -3.377698 -17.197555 0.437428 -0.957294 25.856118 
0.751458 0.233262 0.636740 -4.399022 -4.584686 -2.207663 -0.000000 -0.000000 0.000000 -0.560384 0.477503 4.397100 -1.699665 1.516640 9.937083 0.000000 0.000000 0.000000 -1.854240 1.372107 9.857741 -0.140867 -2.774080 4.935277 -1.778155 1.448953 9.755214 2.104546 0.597307 0.247897 -72.662182 -18.110318 28.858326 -176.390984 -83.441195 176.215113 -1.652355 1.420789 9.670323 -4.249368 -1.596568 1.148912 76.101224 -9.261317 6.584792 -166.034810 87.217305 -166.023177 0.000000 -0.000000 0.000000 6.459465 1.517147 -21.949702 -0.937358 0.618499 33.505656 -0.000000 -0.000000 0.000000 -3.411285 -3.280288 -17.121193 0.482964 -0.974985 25.865334 
0.867887 0.255582 0.674765 -4.249866 -4.860700 -2.190002 -0.000000 0.000000 0.000000 -0.531148 0.438937 4.380968 -1.644789 1.510109 9.897085 0.000000 0.000000 0.000000 -1.791236 1.379369 9.796308 0.266200 -2.150577 4.499322 -1.720645 1.450346 9.756533 2.363953 0.612649 0.286138 -73.045581 -17.643444 29.319189 -176.801094 -83.816188 176.601648 -1.594244 1.418015 9.639868 -4.247027 -1.534985 1.166593 75.921082 -9.027909 6.772516 -167.100272 87.193063 -167.076131 0.000000 -0.000000 0.000000 6.440483 1.575845 -21.892797 -0.991818 0.521076 33.607493 -0.000000 -0.000000 0.000000 -3.420962 -3.182893 -17.035097 0.467231 -1.022763 25.710238 
0.983832 0.274921 0.708186 -4.135706 -5.185112 -2.158588 -0.000000 0.000000 0.000000 -0.496995 0.403316 4.299024 -1.580692 1.491721 9.833239 0.000000 0.000000 0.000000 -1.716855 1.385454 9.751651 0.676342 -1.513213 4.131324 -1.664315 1.429809 9.734525 2.591704 0.631332 0.329940 -73.428807 -17.285865 29.798006 -177.026502 -83.884873 176.853184 -1.542849 1.408943 9.585828 -4.290294 -1.404555 1.187484 75.964352 -8.932174 6.831239 -168.089617 87.119632 -168.076318 0.000000 -0.000000 0.000000 6.415782 1.603800 -21.862472 -1.050453 0.434840 33.681597 -0.000000 -0.000000 0.000000 -3.369467 -3.065206 -16.946918 0.399213 -1.067889 25.405515 
1.098747 0.294214 0.744782 -4.060625 -5.482468 -2.098862 -0.000000 0.000000 0.000000 -0.463495 0.380308 4.216222 -1.515166 1.466849 9.755200 0.000000 0.000000 0.000000 -1.651240 1.388994 9.723266 1.026630 -0.892214 3.818353 -1.608360 1.398231 9.699400 2.785366 0.668939 0.380081 -73.774479 -17.099440 30.163366 -177.108442 -83.921261 176.973287 -1.497957 1.396324 9.512235 -4.358690 -1.293973 1.215393 76.164778 -8.922407 6.782248 -169.191686 86.940743 -169.200358 0.000000 -0.000000 0.000000 6.372611 1.609860 -21.882710 -1.111023 0.357983 33.752874 -0.000000 -0.000000 0.000000 -3.295645 -2.949625 -16.867235 0.341719 -1.061834 25.071658 
1.217916 0.314161 0.783082 -4.063149 -5.723943 -2.002777 -0.000000 0.000000 0.000000 -0.431350 0.371948 4.147905 -1.453672 1.447642 9.694408 0.000000 0.000000 0.000000 -1.592658 1.387041 9.704170 1.353245 -0.371696 3.508056 -1.554412 1.366115 9.660458 2.955218 0.719311 0.430710 -74.115684 -16.911461 30.349172 -177.102505 -83.927634 177.002967 -1.454399 1.386348 9.442908 -4.382824 -1.256568 1.229396 76.381317 -8.914644 6.708294 -170.256479 86.731095 -170.283248 0.000000 0.000000 0.000000 6.317644 1.627350 -21.935754 -1.160674 0.305991 33.771847 -0.000000 -0.000000 0.000000 -3.243150 -2.832824 -16.772394 0.295535 -1.028738 24.675665 
